<?xml version="1.0" encoding="utf-8"?>
<svg width="512" height="512" viewBox="0 0 512 512" fill="none" stroke="none" version="1.1" xmlns:xlink="http://www.w3.org/1999/xlink" xmlns="http://www.w3.org/2000/svg">
  <defs>
    <path id="path_1" d="M512 0L512 0L512 512L0 512L0 0L512 0Z" />
    <rect id="rect_2" x="0" y="0" width="512" height="512" />
    <clipPath id="clip_path_3">
      <use xlink:href="#rect_2" />
    </clipPath>
  </defs>
  <g id="favicon" opacity="1" clip-path="url(#clip_path_3)">
    <g>
      <use xlink:href="#path_1" style="mix-blend-mode:normal;" />
      <g>
        <path id="Vector" d="M2.9301 173.552C14.3342 156.964 28.1106 139.89 44.2593 122.331C44.8224 121.718 45.386 121.108 45.9501 120.5C45.3859 119.892 44.8223 119.282 44.2593 118.669C28.1106 101.11 14.3342 84.0356 2.9301 67.4476C1.69053 65.6446 0.843132 63.673 0.387911 61.5328C-0.0673103 59.3926 -0.095705 57.2468 0.302729 55.0954C0.70116 52.9439 1.49609 50.9506 2.68753 49.1154C3.87896 47.2802 5.37619 45.7428 7.17923 44.5032C10.9339 41.9219 15.0513 41.0461 19.5314 41.8758C24.0116 42.7055 27.5423 44.9977 30.1236 48.7523C36.3665 57.833 43.4141 67.1087 51.2665 76.5796C56.6492 83.0717 62.4102 89.6556 68.5493 96.3312C68.7436 96.5425 68.9376 96.753 69.1311 96.9628C71.5894 94.6157 74.0597 92.3031 76.542 90.0247C85.8157 81.5133 95.2589 73.4805 104.872 65.9263C160.799 21.9754 214.551 0 266.127 0C285.774 0 304.384 2.13908 321.958 6.41725L321.972 6.42061L322.035 6.4361L322.07 6.44458L322.108 6.45396L322.133 6.45996C355.447 14.6072 386.305 34.8445 414.706 67.1721C423.394 77.0605 431.355 87.5472 438.589 98.632C442.27 104.273 445.115 108.997 447.122 112.804L451.18 120.5L447.122 128.196C445.115 132.002 442.271 136.726 438.589 142.368C431.355 153.453 423.394 163.94 414.707 173.828C386.305 206.156 355.447 226.394 322.132 234.541L322.108 234.547L322.035 234.565C322.02 234.569 322.004 234.573 321.989 234.576C321.974 234.58 321.958 234.584 321.943 234.587L321.92 234.593L321.904 234.597C304.346 238.866 285.754 241 266.127 241C214.551 241 160.799 219.025 104.872 175.074C95.259 167.519 85.8158 159.487 76.5422 150.975C74.06 148.697 71.5896 146.384 69.1311 144.037C68.9389 144.245 68.745 144.456 68.5493 144.669C62.4101 151.344 56.6491 157.928 51.2663 164.421C43.4139 173.891 36.3664 183.167 30.1236 192.248C28.884 194.051 27.3466 195.548 25.5114 196.739C23.6762 197.931 21.6829 198.726 19.5314 199.124C17.38 199.523 15.2342 199.494 13.094 199.039C10.9539 198.584 8.98227 197.736 7.17923 196.497C3.42459 193.915 1.13242 190.385 0.302727 185.905C-0.526968 181.424 0.348824 177.307 2.9301 173.552L2.9301 173.552ZM107.575 134.468C102.421 129.969 97.318 125.313 92.2666 120.5C97.3178 115.687 102.421 111.031 107.575 106.532C113.405 101.444 119.3 96.558 125.262 91.8731C175.206 52.6244 222.161 33 266.127 33C275.258 33 284.101 33.5266 292.657 34.5799C292.353 35.2171 292.053 35.8549 291.757 36.4933C276.881 68.589 271.36 103.095 275.195 140.013C277.008 157.464 280.873 174.484 286.791 191.073C288.491 195.84 290.291 200.394 292.188 204.737C292.431 205.291 292.674 205.841 292.919 206.388C284.283 207.463 275.352 208 266.127 208C222.161 208 175.206 188.376 125.262 149.127C119.3 144.442 113.405 139.556 107.575 134.468L107.575 134.468ZM325.918 198.954C323.126 193.434 320.529 187.348 318.127 180.695L318.127 180.693C318.042 180.459 317.957 180.223 317.873 179.986C312.843 165.886 309.558 151.425 308.018 136.603C305.153 109.018 308.522 83.0707 318.127 58.7622L318.127 58.7603C320.366 53.0933 322.944 47.5155 325.861 42.0267C348.217 50.1517 369.569 65.7936 389.915 88.9527C397.565 97.6603 404.578 106.898 410.953 116.667C411.836 118.02 412.655 119.298 413.411 120.5C412.655 121.703 411.836 122.981 410.953 124.333C404.578 134.102 397.566 143.34 389.915 152.048C369.586 175.187 348.254 190.823 325.918 198.954L325.918 198.954ZM211.207 79.3414C211.745 78.7657 212.296 78.1961 212.859 77.6328C214.273 76.2188 215.891 75.0988 217.712 74.2729C219.533 73.447 221.441 72.968 223.437 72.836C225.809 72.679 228.108 73.0188 230.334 73.8556C232.559 74.6924 234.512 75.9514 236.194 77.6326C237.741 79.1798 238.933 80.9641 239.77 82.9856C240.608 85.0071 241.026 87.1118 241.026 89.2999C241.026 91.4879 240.608 93.5927 239.77 95.6141C238.933 97.6356 237.741 99.42 236.194 100.967C231.48 105.681 228.6 111.255 227.552 117.691C226.273 125.546 229.154 132.993 236.194 140.033C237.741 141.58 238.933 143.364 239.77 145.386C240.608 147.407 241.026 149.512 241.026 151.7C241.026 153.888 240.608 155.993 239.77 158.014C238.933 160.036 237.741 161.82 236.194 163.367C234.512 165.049 232.559 166.308 230.333 167.144C228.107 167.981 225.808 168.321 223.435 168.164C221.44 168.031 219.532 167.552 217.711 166.727C215.89 165.901 214.273 164.781 212.859 163.367C212.289 162.797 211.733 162.225 211.189 161.65C197.412 147.066 192.009 130.646 194.981 112.389C197.042 99.7272 202.451 88.7114 211.207 79.3414L211.207 79.3414Z" style="fill:#ffffff;fill-rule:evenodd;mix-blend-mode:normal;" transform="translate(31.473 135.5)" />
        <path id="Path" d="M0 0L1 0" style="fill:none;stroke-width:33;stroke:#ffffff;stroke-linecap:round;mix-blend-mode:normal;" transform="translate(380 236)" />
      </g>
    </g>
  </g>
</svg>