<?xml version="1.0" encoding="utf-8"?>
<svg width="180" height="180" viewBox="0 0 180 180" fill="none" stroke="none" version="1.1" xmlns:xlink="http://www.w3.org/1999/xlink" xmlns="http://www.w3.org/2000/svg">
  <defs>
    <path id="path_1" d="M180 0L180 0L180 180L0 180L0 0L180 0Z" />
    <rect id="rect_2" x="0" y="0" width="180" height="180" />
    <clipPath id="clip_path_3">
      <use xlink:href="#rect_2" />
    </clipPath>
  </defs>
  <g id="Frame" opacity="1" clip-path="url(#clip_path_3)">
    <g>
      <use xlink:href="#path_1" style="mix-blend-mode:normal;" />
      <g>
        <path id="Shape" d="M0.887537 52.5697C4.3419 47.5451 8.51482 42.3734 13.4063 37.0545C13.5769 36.869 13.7476 36.6841 13.9185 36.4999C13.7476 36.3157 13.5769 36.1309 13.4063 35.9454C8.51481 30.6265 4.34189 25.4548 0.887539 20.4302C0.512066 19.884 0.255386 19.2868 0.117498 18.6385C-0.0203896 17.9903 -0.0289917 17.3403 0.0916958 16.6886C0.212383 16.0369 0.453171 15.4332 0.814062 14.8773C1.17495 14.3214 1.62847 13.8557 2.17462 13.4802C3.31191 12.6983 4.55909 12.4331 5.91615 12.6844C7.27322 12.9357 8.34269 13.63 9.12457 14.7673C11.0156 17.5179 13.1503 20.3275 15.5288 23.1963C17.1593 25.1628 18.9043 27.157 20.7639 29.1791C20.8227 29.2431 20.8815 29.3069 20.9401 29.3705C21.6847 28.6595 22.433 27.959 23.1849 27.2689C25.9939 24.6907 28.8543 22.2575 31.766 19.9694C48.7067 6.65646 64.9883 0 80.6109 0C86.562 0 92.1992 0.647938 97.5224 1.94381L97.5266 1.94483L97.5457 1.94952L97.5563 1.95209L97.5679 1.95493L97.5754 1.95675C107.666 4.42457 117.013 10.5546 125.616 20.3467C128.248 23.342 130.659 26.5184 132.85 29.876C133.966 31.5849 134.827 33.0158 135.435 34.1688L136.664 36.5L135.435 38.8312C134.827 39.9841 133.966 41.415 132.85 43.1239C130.659 46.4816 128.248 49.658 125.616 52.6533C117.013 62.4456 107.666 68.5756 97.5753 71.0436L97.5678 71.0454L97.5458 71.0508C97.5411 71.0519 97.5365 71.053 97.5318 71.0541C97.5272 71.0553 97.5225 71.0564 97.5179 71.0575L97.5109 71.0592L97.5062 71.0603C92.1878 72.3534 86.556 72.9999 80.6109 72.9999C64.9884 72.9999 48.7068 66.3435 31.766 53.0305C28.8543 50.7424 25.994 48.3092 23.1849 45.7311C22.4331 45.041 21.6848 44.3405 20.9401 43.6294C20.8819 43.6926 20.8231 43.7563 20.7639 43.8208C18.9043 45.8428 17.1593 47.8372 15.5288 49.8037C13.1503 52.6724 11.0155 55.4821 9.12457 58.2326C8.7491 58.7788 8.28341 59.2323 7.72752 59.5932C7.17163 59.9541 6.56784 60.1948 5.91615 60.3155C5.26447 60.4362 4.6145 60.4276 3.96623 60.2897C3.31797 60.1518 2.72077 59.8952 2.17462 59.5197C1.03732 58.7378 0.343012 57.6683 0.0916958 56.3113C-0.159622 54.9542 0.105658 53.707 0.887537 52.5697L0.887537 52.5697ZM32.5849 40.7308C31.0237 39.3683 29.478 37.958 27.948 36.4999C29.478 35.042 31.0236 33.6317 32.5848 32.2691C34.3508 30.728 36.1366 29.2478 37.9424 27.8288C53.0706 15.9401 67.2934 9.99584 80.6108 9.99584C83.3768 9.99584 86.0555 10.1554 88.6469 10.4744C88.555 10.6674 88.4642 10.8606 88.3745 11.054C83.8683 20.7759 82.196 31.228 83.3577 42.4104C83.9068 47.6964 85.0776 52.8519 86.8702 57.877C87.3852 59.3208 87.9302 60.7003 88.5051 62.0157C88.5784 62.1835 88.6522 62.3502 88.7265 62.5157C86.1103 62.8413 83.4051 63.0041 80.6108 63.0041C67.2935 63.0041 53.0706 57.0598 37.9424 45.1711C36.1366 43.7521 34.3508 42.272 32.5849 40.7308L32.5849 40.7308ZM98.7221 60.2639C97.8762 58.5921 97.0895 56.7486 96.3621 54.7334L96.3619 54.7328C96.3363 54.6618 96.3106 54.5903 96.285 54.5185C94.7614 50.2476 93.7664 45.8672 93.3 41.3775C92.432 33.0219 93.4526 25.1625 96.3619 17.7993L96.3621 17.7988C97.0404 16.0822 97.8213 14.3926 98.7048 12.7301C105.477 15.1912 111.944 19.9292 118.107 26.9441C120.424 29.5817 122.549 32.38 124.48 35.3389C124.747 35.7488 124.995 36.1358 125.224 36.5C124.995 36.8643 124.747 37.2513 124.48 37.6611C122.549 40.62 120.424 43.4183 118.107 46.056C111.949 53.065 105.488 57.801 98.7221 60.2639L98.7221 60.2639ZM63.9755 24.0329C64.1385 23.8585 64.3053 23.6859 64.476 23.5153C64.9043 23.087 65.3943 22.7477 65.9459 22.4976C66.4975 22.2474 67.0756 22.1023 67.68 22.0623C68.3986 22.0148 69.0949 22.1177 69.769 22.3712C70.4432 22.6246 71.0348 23.006 71.5441 23.5153C72.0127 23.9839 72.3739 24.5244 72.6275 25.1367C72.8811 25.749 73.0079 26.3865 73.008 27.0493C73.008 27.7121 72.8811 28.3496 72.6275 28.9619C72.3739 29.5742 72.0128 30.1147 71.5441 30.5834C70.1164 32.0111 69.2439 33.6997 68.9266 35.6491C68.5392 38.0283 69.4118 40.2841 71.5441 42.4165C72.0127 42.8851 72.3739 43.4256 72.6275 44.0379C72.8811 44.6502 73.008 45.2878 73.008 45.9505C73.008 46.6133 72.8811 47.2508 72.6275 47.8631C72.3739 48.4755 72.0127 49.0159 71.5441 49.4846C71.0348 49.9939 70.443 50.3753 69.7688 50.6287C69.0946 50.8822 68.3981 50.9851 67.6794 50.9375C67.0751 50.8974 66.4972 50.7523 65.9456 50.5021C65.3941 50.252 64.9042 49.9128 64.476 49.4845C64.3034 49.312 64.1348 49.1386 63.9702 48.9644C59.7969 44.547 58.1603 39.5732 59.0606 34.043C59.685 30.2078 61.3233 26.871 63.9755 24.0329L63.9755 24.0329Z" style="fill:#FFFFFF;fill-rule:evenodd;mix-blend-mode:normal;" transform="translate(22 54)" />
        <path id="Vector" d="M5.30083 0L4.99792 0C3.61777 0 2.43973 0.487968 1.46379 1.46387C0.48793 2.43976 0 3.61777 0 4.99792C0 6.37804 0.48793 7.55604 1.46379 8.53194C2.43973 9.50784 3.61777 9.9958 4.99792 9.99584L5.30083 9.99584C6.68097 9.9958 7.85895 9.50787 8.83481 8.53197C9.81075 7.55608 10.2987 6.37804 10.2987 4.99792C10.2987 3.61777 9.81075 2.43973 8.83481 1.46383C7.85895 0.48793 6.68097 0 5.30083 0L5.30083 0Z" style="fill:#FFFFFF;fill-rule:evenodd;mix-blend-mode:normal;" transform="translate(123 80)" />
      </g>
    </g>
  </g>
</svg>